# AST/ASF file generated using VICON BodyLanguage
# -----------------------------------------------
:version 1.10
:name VICON
:units
  mass 1.0
  length 0.45
  angle deg
:documentation
   .ast/.asf automatically generated from VICON data using
   VICON BodyBuilder and BodyLanguage model FoxedUp or BRILLIANT.MOD
:root
   order TX TY TZ RX RY RZ
   axis XYZ
   position 0 0 0  
   orientation 0 0 0 
:bonedata
  begin
     id 1 
     name lhipjoint
     direction 0.570549 -0.739093 0.358072 
     length 2.41801 
     axis 0 0 0  XYZ
  end
  begin
     id 2 
     name lfemur
     direction 0.34202 -0.939693 0  
     length 7.44434  
     axis 0 0 20  XYZ
    dof rx ry rz
    limits (-160.0 20.0)
           (-70.0 70.0)
           (-60.0 70.0)
  end
  begin
     id 3 
     name ltibia
     direction 0.34202 -0.939693 0   
     length 7.60047   
     axis 0 0 20   XYZ
    dof rx
    limits (-10.0 170.0)
  end
  begin
     id 4 
     name lfoot
     direction 0.0909041 -0.249757 0.964032   
     length 2.03437   
     axis -90 7.62852e-016 20   XYZ
    dof rx rz
    limits (-45.0 90.0)
           (-70.0 20.0)
  end
  begin
     id 5 
     name ltoes
     direction 1.53547e-011 -4.2174e-011 1   
     length 1.02054   
     axis -90 7.62852e-016 20   XYZ
    dof rx
    limits (-90.0 20.0)
  end
  begin
     id 6 
     name rhipjoint
     direction -0.558096 -0.746754 0.361784   
     length 2.3932  
     axis 0 0 0  XYZ 
  end
  begin
     id 7 
     name rfemur
     direction -0.34202 -0.939693 0   
     length 7.3886   
     axis 0 0 -20   XYZ
    dof rx ry rz
    limits (-160.0 20.0)
           (-70.0 70.0)
           (-70.0 60.0)
  end
  begin
     id 8 
     name rtibia
     direction -0.34202 -0.939693 0   
     length 7.4839   
     axis 0 0 -20   XYZ
    dof rx
    limits (-10.0 170.0)
 end
 begin
     id 9 
     name rfoot
     direction -0.114619 -0.314914 0.942174   
     length 2.25127  
     axis -90 -7.62852e-016 -20   XYZ
    dof rx rz
    limits (-45.0 90.0)
           (-20.0 70.0)
  end
  begin
     id 10 
     name rtoes
     direction -1.53518e-011 -4.21881e-011 1   
     length 1.11821   
     axis -90 -7.62852e-016 -20   XYZ
    dof rx
    limits (-90.0 20.0)
  end
  begin
     id 11 
     name lowerback
     direction -0.00902269 0.996426 -0.0839821   
     length 2.25052   
     axis 0 0 0   XYZ
    dof rx ry rz
    limits (-20.0 45.0)
           (-30.0 30.0)
           (-30.0 30.0)
  end
  begin
     id 12 
     name upperback
     direction 0.0370973 0.999169 -0.0168941   
     length 2.24876   
     axis 0 0 0   XYZ
    dof rx ry rz
    limits (-20.0 45.0)
           (-30.0 30.0)
           (-30.0 30.0)
  end
  begin
     id 13 
     name thorax
     direction 0.0402726 0.998931 0.0227027   
     length 2.26408   
     axis 0 0 0   XYZ
    dof rx ry rz
    limits (-20.0 45.0)
           (-30.0 30.0)
           (-30.0 30.0)
  end
  begin
     id 14 
     name lowerneck
     direction -0.0733697 0.98508 0.155675   
     length 1.58204   
     axis 0 0 0   XYZ
    dof rx ry rz
    limits (-20.0 45.0)
           (-30.0 30.0)
           (-30.0 30.0)
  end
  begin
     id 15 
     name upperneck
     direction 0.0426554 0.993501 -0.105526   
     length 1.61222   
     axis 0 0 0   XYZ
    dof rx ry rz
    limits (-20.0 45.0)
           (-30.0 30.0)
           (-30.0 30.0)
  end
  begin
     id 16
     name head
     direction 0.020792 0.998384 -0.0528868  
     length 1.61527  
     axis 0 0 0   XYZ
    dof rx ry rz
    limits (-20.0 45.0)
           (-30.0 30.0)
           (-30.0 30.0)
  end
  begin
     id 17 
     name lclavicle
     direction 0.967109 0.155462 -0.201325  
     length 3.59357  
     axis 0 0 0   XYZ
    dof ry rz
    limits (-20.0 10.0)
           (0.0 20.0)
  end
  begin
     id 18 
     name lhumerus
     direction 1 -4.48968e-011 2.38195e-027   
     length 5.38154   
     axis 180 -30 -90   XYZ
    dof rx ry rz
    limits (-60.0 90.0)
           (-90.0 90.0)
           (-90.0 90.0)
  end
  begin
     id 19
     name lradius
     direction 1 -4.48961e-011 4.85371e-027   
     length 3.33312   
     axis 180 -30 -90   XYZ
    dof rx
    limits (-10.0 170.0)
  end
  begin
     id 20
     name lwrist
     direction 1 -4.48961e-011 4.76515e-027   
     length 1.66656   
     axis -3.27502e-015 90 90   XYZ
    dof ry
    limits (-180.0 0.0)
 end
  begin
     id 21 
     name lhand
     direction 1 -4.48951e-011 9.53074e-027   
     length 0.710789   
     axis -6.08098e-015 90 90   XYZ
    dof rx rz
    limits (-90.0 90.0)
           (-45.0 45.0)
  end
  begin
     id 22 
     name lfingers
     direction 1 -4.48953e-011 1.90613e-026   
     length 0.573057   
     axis -1.21619e-014 90 90   XYZ
    dof rx
    limits (0.0 90.0)
  end
  begin
     id 23
     name lthumb
     direction 0.707107 -6.34973e-011 0.707107   
     length 0.822798   
     axis -90 45 -9.86923e-015   XYZ
    dof rx rz
    limits (-45.0 45.0)
           (-45.0 45.0)
  end
  begin
     id 24 
     name rclavicle
     direction -0.9585 0.265289 -0.104398   
     length 3.42039  
     axis 0 0 0   XYZ 
    dof ry rz
    limits (-10.0 20.0)
           (-20.0 0.0)
  end
  begin
     id 25 
     name rhumerus
     direction -1 -4.48977e-011 2.21478e-027  
     length 5.16954   
     axis 180 30 90   XYZ
    dof rx ry rz
    limits (-90.0 60.0)
           (-90.0 90.0)
           (-90.0 90.0)
  end
  begin
     id 26 
     name rradius
     direction -1 -4.48967e-011 5.63677e-027   
     length 3.38287   
     axis 180 30 90   XYZ
    dof rx
    limits (-10.0 170.0)
  end
  begin
     id 27 
     name rwrist
     direction -1 -4.48967e-011 4.76501e-027   
     length 1.69144   
     axis -3.27502e-015 -90 -90   XYZ
    dof ry
    limits (-180.0 0.0)
  end
  begin
     id 28
     name rhand
     direction -1 -4.48902e-011 9.53292e-027   
     length 0.817967   
     axis -6.08098e-015 -90 -90   XYZ
    dof rx rz
    limits (-90.0 90.0)
           (-45.0 45.0)
  end
  begin
     id 29
     name rfingers
     direction -1 -4.49012e-011 1.90561e-026   
     length 0.659466   
     axis -1.21619e-014 -90 -90   XYZ
    dof rx
    limits (0.0 90.0)
  end
  begin
     id 30
     name rthumb
     direction -0.707107 -6.34944e-011 0.707107   
     length 0.946865   
     axis -90 -45 9.86923e-015   XYZ
    dof rx rz
    limits (-45.0 45.0)
           (-45.0 45.0)
  end
:hierarchy
  begin
    root lhipjoint rhipjoint lowerback
    lhipjoint lfemur
    lfemur ltibia
    ltibia lfoot
    lfoot ltoes
    rhipjoint rfemur
    rfemur rtibia
    rtibia rfoot
    rfoot rtoes
    lowerback upperback
    upperback thorax
    thorax lowerneck lclavicle rclavicle
    lowerneck upperneck
    upperneck head
    lclavicle lhumerus
    lhumerus lradius
    lradius lwrist
    lwrist lhand lthumb
    lhand lfingers
    rclavicle rhumerus
    rhumerus rradius
    rradius rwrist
    rwrist rhand rthumb
    rhand rfingers
  end

#!OML:ASF F:\twosubjects\two\wednesday\Session 1\Justin1.ASF
:FULLY-SPECIFIED
:DEGREES
197
root 12.8565 17.7522 17.5568 -0.610806 4.09929 1.06199
lowerback 3.18911 -0.873339 -3.93343
upperback 2.10737 -1.26262 2.13035
thorax 0.515065 -0.686996 4.43887
lowerneck -13.7526 -3.98194 -11.79
upperneck 21.4369 -4.88264 8.98032
head 9.54482 -2.28006 4.50654
rclavicle -3.27995e-014 3.22031e-014
rhumerus -58.825 46.4264 -98.6926
rradius 63.5101
rwrist -18.0021
rhand -8.75402 19.7339
rfingers 7.12502
rthumb 17.1832 -9.52629
lclavicle -3.27995e-014 3.22031e-014
lhumerus -18.7668 -8.28114 77.5908
lradius 49.8368
lwrist -3.88248
lhand -2.06979 34.6764
lfingers 7.12502
lthumb 23.6065 63.2474
rfemur -26.4795 -1.37902 20.5978
rtibia 27.1926
rfoot 1.86715 -2.3219
rtoes 4.554
lfemur 14.7482 -3.26771 -20.7818
ltibia 28.3981
lfoot -0.223536 -8.71498
ltoes -21.2838
198
root 12.8278 17.7551 17.7548 -0.663305 3.9144 0.387679
lowerback 3.26824 -0.844833 -3.35142
upperback 2.02862 -1.21208 2.4043
thorax 0.376859 -0.652966 4.39488
lowerneck -14.4833 -4.20346 -11.5564
upperneck 22.3081 -5.04521 8.28592
head 9.98892 -2.40204 4.21
rclavicle -7.8023e-015 7.95139e-015
rhumerus -59.1324 46.4301 -98.7427
rradius 63.3819
rwrist -17.9852
rhand -8.84284 20.2167
rfingers 7.12502
rthumb 17.0977 -9.05096
lclavicle -7.8023e-015 7.95139e-015
lhumerus -19.4265 -7.6468 77.9894
lradius 49.2305
lwrist -4.05927
lhand -1.8666 34.8956
lfingers 7.12502
lthumb 23.8013 63.4412
rfemur -26.0865 -0.67128 21.3938
rtibia 27.5968
rfoot 1.11675 -2.24227
rtoes 7.21106
lfemur 13.1619 -2.70172 -19.5524
ltibia 31.6537
lfoot 2.8557 -9.24283
ltoes -16.6543
199
root 12.7813 17.7703 17.913 -0.439217 3.56912 -0.856902
lowerback 3.21083 -0.717168 -2.38812
upperback 2.01944 -1.01518 2.84592
thorax 0.369231 -0.54755 4.30161
lowerneck -15.2902 -4.45138 -11.0256
upperneck 22.8716 -5.24333 7.39989
head 10.3307 -2.53433 3.77523
rclavicle -2.05742e-014 2.38542e-014
rhumerus -58.6932 46.4238 -98.3573
rradius 63.1985
rwrist -18.4779
rhand -8.99551 20.6294
rfingers 7.12502
rthumb 16.9508 -8.65088
lclavicle -2.05742e-014 2.38542e-014
lhumerus -19.6518 -7.01602 78.3637
lradius 48.5521
lwrist -4.20999
lhand -1.91994 35.0078
lfingers 7.12502
lthumb 23.7502 63.5601
rfemur -26.0317 0.41515 22.9892
rtibia 27.9459
rfoot 0.632561 -2.92618
rtoes 4.42157
lfemur 11.1261 -2.01264 -17.565
ltibia 34.6268
lfoot 6.51494 -9.72339
ltoes -11.6505
200
root 12.7173 17.784 18.0499 -0.121814 2.89905 -2.49383
lowerback 3.53862 -0.432108 -1.2193
upperback 1.79667 -0.597381 3.3636
thorax -0.0894369 -0.32086 4.17027
lowerneck -16.0204 -4.69248 -10.5827
upperneck 23.5278 -5.51124 6.85063
head 10.7103 -2.67239 3.46531
rclavicle -5.91384e-015 3.18055e-014
rhumerus -58.1992 45.9186 -97.8949
rradius 63.2086
rwrist -18.68
rhand -8.80631 20.4113
rfingers 7.12502
rthumb 17.1329 -8.85332
lclavicle -5.91384e-015 3.18055e-014
lhumerus -20.0926 -6.68689 78.6593
lradius 47.8915
lwrist -4.15743
lhand -1.98422 35.0149
lfingers 7.12502
lthumb 23.6885 63.5752
rfemur -26.1916 2.16536 25.0103
rtibia 28.3304
rfoot 0.211212 -3.90798
rtoes 2.75467
lfemur 9.04703 -1.09961 -15.0819
ltibia 37.18
lfoot 10.2537 -10.2602
ltoes -7.44838
201
root 12.7042 17.8072 18.2853 -0.525604 3.34726 -2.40705
lowerback 3.50933 -0.60834 -1.24953
upperback 1.95298 -0.83713 3.31431
thorax 0.106908 -0.445756 4.14268
lowerneck -16.5491 -4.79298 -10.4467
upperneck 24.1639 -5.63077 6.72058
head 11.053 -2.72532 3.38175
rclavicle 1.16786e-014 1.35174e-014
rhumerus -58.1111 45.5001 -97.6772
rradius 63.1901
rwrist -18.5283
rhand -8.46727 20.5465
rfingers 7.12502
rthumb 17.4592 -8.68948
lclavicle 1.16786e-014 1.35174e-014
lhumerus -20.7566 -6.16421 78.8731
lradius 47.3135
lwrist -4.3169
lhand -1.47208 35.3145
lfingers 7.12502
lthumb 24.1796 63.8104
rfemur -25.0581 1.56287 25.0518
rtibia 28.9242
rfoot -1.07547 -3.66966
rtoes 2.96276
lfemur 8.34431 -1.3296 -14.9684
ltibia 39.3269
lfoot 13.0216 -10.7367
ltoes -6.17408
202
root 12.7174 17.8365 18.557 -1.31338 4.55156 -1.06714
lowerback 3.24844 -1.02458 -2.33839
upperback 2.44378 -1.42928 2.9281
thorax 0.824568 -0.770338 4.36513
lowerneck -16.5966 -4.7786 -10.4535
upperneck 24.2575 -5.59111 6.66142
head 11.0919 -2.71485 3.36817
rclavicle 1.39149e-015 -2.22639e-014
rhumerus -57.992 45.3058 -97.4493
rradius 62.922
rwrist -18.3213
rhand -8.84117 20.7518
rfingers 7.12502
rthumb 17.0993 -8.51567
lclavicle 1.39149e-015 -2.22639e-014
lhumerus -21.2014 -5.73639 79.1918
lradius 46.5953
lwrist -4.34516
lhand -1.13348 35.4341
lfingers 7.12502
lthumb 24.5043 63.8864
rfemur -23.1277 -0.467577 23.6249
rtibia 29.3911
rfoot -2.55634 -2.92177
rtoes 0.742357
lfemur 8.23768 -2.38157 -16.6247
ltibia 41.4751
lfoot 14.7005 -11.2662
ltoes -6.76057
203
root 12.7022 17.8513 18.7657 -1.51174 5.06083 -0.388052
lowerback 3.26925 -1.1315 -3.03928
upperback 2.48252 -1.58882 2.75191
thorax 0.88374 -0.860239 4.58273
lowerneck -16.0568 -4.72263 -10.451
upperneck 24.0112 -5.5472 6.61859
head 10.8888 -2.70761 3.36058
rclavicle -4.82053e-015 -7.95139e-016
rhumerus -57.9683 44.9168 -97.3897
rradius 62.6697
rwrist -17.9713
rhand -9.64362 20.6554
rfingers 7.12502
rthumb 16.3268 -8.6773
lclavicle -4.82053e-015 -7.95139e-016
lhumerus -21.7742 -5.56745 79.5566
lradius 45.801
lwrist -4.36159
lhand -1.19794 35.3259
lfingers 7.12502
lthumb 24.4425 63.7865
rfemur -22.0845 -0.834609 22.9707
rtibia 29.6217
rfoot -3.43549 -3.12808
rtoes -2.28884
lfemur 7.00604 -2.85052 -17.3719
ltibia 44.0064
lfoot 16.6933 -11.5101
ltoes -2.74063
204
root 12.6503 17.8603 18.9143 -1.07337 4.77761 -1.56366
lowerback 3.24724 -1.00921 -2.24606
upperback 2.19418 -1.40371 3.15432
thorax 0.569647 -0.749537 4.55049
lowerneck -16.1334 -4.7797 -10.1341
upperneck 24.2724 -5.58887 6.13595
head 10.9805 -2.75526 3.12627
rclavicle 1.86858e-014 4.77083e-015
rhumerus -57.8234 44.6456 -97.2159
rradius 62.7054
rwrist -18.1714
rhand -9.90021 20.7048
rfingers 7.12502
rthumb 16.0797 -8.64808
lclavicle 1.86858e-014 4.77083e-015
lhumerus -22.3104 -5.255 79.8703
lradius 45.1013
lwrist -4.57071
lhand -1.20454 35.4837
lfingers 7.12502
lthumb 24.4361 63.9452
rfemur -22.1202 0.659496 24.484
rtibia 29.641
rfoot -3.72522 -4.38081
rtoes -3.74362
lfemur 4.45902 -2.50899 -15.622
ltibia 46.7322
lfoot 19.4405 -11.4411
ltoes 4.41715
205
root 12.5842 17.8745 19.0203 -0.622512 4.11415 -3.71519
lowerback 3.55685 -0.813721 -0.725484
upperback 1.94346 -1.09251 3.95783
thorax 0.094881 -0.572851 4.52475
lowerneck -16.82 -4.86334 -9.92937
upperneck 24.9051 -5.54712 5.51561
head 11.325 -2.78561 2.86827
rclavicle 5.41688e-015 1.27222e-014
rhumerus -57.424 44.6824 -96.6647
rradius 62.8278
rwrist -18.5666
rhand -9.91178 20.8841
rfingers 7.12502
rthumb 16.0686 -8.46963
lclavicle 5.41688e-015 1.27222e-014
lhumerus -22.6195 -4.78402 80.2866
lradius 44.3156
lwrist -4.59445
lhand -1.25787 35.8513
lfingers 7.12502
lthumb 24.385 64.3197
rfemur -22.1723 2.76651 27.0019
rtibia 28.8159
rfoot -3.30528 -5.68751
rtoes -1.93703
lfemur 1.30071 -1.47178 -12.5659
ltibia 50.2811
lfoot 21.0939 -11.9847
ltoes 8.201
206
root 12.5754 17.9327 19.2468 -1.1142 4.65043 -3.16203
lowerback 3.43298 -0.977917 -1.31804
upperback 2.30575 -1.34037 3.8662
thorax 0.570322 -0.714251 4.76716
lowerneck -14.1371 -4.11065 -11.3278
upperneck 22.8581 -4.87121 7.63124
head 10.0783 -2.38564 3.9728
rclavicle 1.73937e-015 -1.59028e-014
rhumerus -56.9144 44.4185 -96.0579
rradius 62.7376
rwrist -18.4042
rhand -10.3043 21.1034
rfingers 7.12502
rthumb 15.6905 -8.28045
lclavicle 1.73937e-015 -1.59028e-014
lhumerus -22.8261 -4.39961 80.7063
lradius 43.3478
lwrist -4.8352
lhand -1.28091 35.9223
lfingers 7.12502
lthumb 24.3629 64.3936
rfemur -20.5543 2.3022 26.3322
rtibia 27.9588
rfoot -3.79704 -5.60636
rtoes 2.50369
lfemur 0.567876 -1.67374 -13.1505
ltibia 52.7207
lfoot 20.8998 -11.8611
ltoes 7.59867
207
root 12.5414 17.9004 19.3972 -1.35452 4.15851 -7.05544
lowerback 3.52333 -0.810805 2.41759
upperback 2.30363 -1.00989 4.91676
thorax 0.441399 -0.511816 3.73948
lowerneck -15.7525 -4.62506 -10.376
upperneck 24.3653 -5.42382 6.42761
head 10.9408 -2.67513 3.30606
rclavicle -1.27719e-014 -7.15625e-015
rhumerus -56.5966 43.8739 -95.868
rradius 62.453
rwrist -18.5381
rhand -10.8168 21.3734
rfingers 7.12502
rthumb 15.197 -8.04846
lclavicle -1.27719e-014 -7.15625e-015
lhumerus -23.1254 -4.49906 80.9936
lradius 42.2527
lwrist -5.26737
lhand -0.907822 35.8025
lfingers 7.12502
lthumb 24.7206 64.2253
rfemur -19.2426 2.62456 31.0371
rtibia 27.1325
rfoot -3.98368 -5.79134
rtoes -2.48879
lfemur -1.37475 -0.647616 -8.1821
ltibia 55.6892
lfoot 20.0391 -11.9324
ltoes 3.96434
208
root 12.5327 18.0001 19.6463 -1.94712 4.78462 -5.72514
lowerback 3.7604 -0.896058 1.20592
upperback 2.3662 -1.15121 4.46937
thorax 0.393216 -0.593091 3.96531
lowerneck -17.4426 -5.32023 -9.76972
upperneck 25.972 -6.08787 5.04048
head 11.8877 -3.0712 2.58003
rclavicle -2.26118e-014 2.94201e-014
rhumerus -56.8048 43.5473 -96.099
rradius 62.0921
rwrist -19.1015
rhand -11.0315 21.4697
rfingers 7.12502
rthumb 14.9901 -7.96772
lclavicle -2.26118e-014 2.94201e-014
lhumerus -23.8702 -4.69328 81.3375
lradius 41.2526
lwrist -5.71985
lhand -0.279255 35.6806
lfingers 7.12502
lthumb 25.3229 64.0195
rfemur -17.9644 2.01407 29.4952
rtibia 26.823
rfoot -4.56635 -5.68062
rtoes 2.13031
lfemur -1.47481 -1.11216 -9.75588
ltibia 56.9274
lfoot 18.7209 -10.1139
ltoes 0.541728
209
root 12.5212 17.9988 19.8021 -1.64492 4.68985 -6.28081
lowerback 3.89377 -0.781538 1.76997
upperback 1.95972 -0.953944 4.62683
thorax -0.117952 -0.485741 3.80955
lowerneck -15.3225 -4.94406 -10.8111
upperneck 24.7015 -5.86255 6.57668
head 11.0476 -2.90882 3.37954
rclavicle 6.65929e-015 -1.59028e-014
rhumerus -57.0528 43.1216 -96.1513
rradius 61.8922
rwrist -19.2676
rhand -11.0645 20.957
rfingers 7.12502
rthumb 14.9583 -8.48283
lclavicle 6.65929e-015 -1.59028e-014
lhumerus -24.7401 -4.68586 81.7593
lradius 40.3678
lwrist -6.24373
lhand 0.127655 35.5261
lfingers 7.12502
lthumb 25.7126 63.8093
rfemur -16.8933 1.8675 30.3274
rtibia 26.2083
rfoot -5.16853 -5.40054
rtoes -0.791666
lfemur -3.53854 -0.550841 -8.9148
ltibia 59.204
lfoot 16.6879 -8.86242
ltoes -1.83854
